<svg width="900" height="1100" viewBox="0 0 900 1100" fill="none" xmlns="http://www.w3.org/2000/svg" role="img" aria-label="Professional portrait placeholder">
  <defs>
    <linearGradient id="bg" x1="120" y1="40" x2="760" y2="1060" gradientUnits="userSpaceOnUse">
      <stop stop-color="#E5EAD8"/>
      <stop offset="1" stop-color="#D4C5A4"/>
    </linearGradient>
    <linearGradient id="shirt" x1="455" y1="565" x2="455" y2="1034" gradientUnits="userSpaceOnUse">
      <stop stop-color="#2E625B"/>
      <stop offset="1" stop-color="#1B413B"/>
    </linearGradient>
    <radialGradient id="face" cx="0" cy="0" r="1" gradientUnits="userSpaceOnUse" gradientTransform="translate(455 332) rotate(90) scale(228 180)">
      <stop stop-color="#F7D8C0"/>
      <stop offset="1" stop-color="#DBB092"/>
    </radialGradient>
  </defs>

  <rect width="900" height="1100" rx="24" fill="url(#bg)"/>

  <circle cx="450" cy="300" r="170" fill="url(#face)"/>
  <path d="M296 312C296 228 360 158 452 158C544 158 608 228 608 312V350C594 308 560 252 450 252C340 252 307 308 292 350L296 312Z" fill="#1E2D2B"/>

  <rect x="255" y="565" width="390" height="470" rx="130" fill="url(#shirt)"/>
  <path d="M360 579L450 706L540 579" stroke="#E5D8BE" stroke-width="14" stroke-linecap="round"/>

  <ellipse cx="390" cy="332" rx="12" ry="8" fill="#34241A"/>
  <ellipse cx="510" cy="332" rx="12" ry="8" fill="#34241A"/>
  <path d="M392 410C423 439 477 439 509 410" stroke="#7A4631" stroke-width="10" stroke-linecap="round"/>

  <text x="450" y="1038" text-anchor="middle" font-family="Segoe UI, sans-serif" font-weight="600" font-size="28" fill="#1E2D2B">
    Professional Profile Image Placeholder
  </text>
</svg>
